<svg width="720" height="606" viewBox="0 0 720 606" fill="none" xmlns="http://www.w3.org/2000/svg">
<mask id="mask0_850_115" style="mask-type:alpha" maskUnits="userSpaceOnUse" x="-82" y="0" width="884" height="606">
<rect x="-82" width="883.688" height="606" fill="url(#paint0_radial_850_115)"/>
</mask>
<g mask="url(#mask0_850_115)">
<rect x="-51.849" y="7.07249" width="58.8133" height="58.8133" stroke="#A39EC6" stroke-width="0.744472"/>
<rect x="6.9644" y="7.07249" width="58.8133" height="58.8133" stroke="#A39EC6" stroke-width="0.744472"/>
<rect x="65.7776" y="7.07249" width="58.8133" height="58.8133" stroke="#A39EC6" stroke-width="0.744472"/>
<rect x="124.591" y="7.07249" width="58.8133" height="58.8133" stroke="#A39EC6" stroke-width="0.744472"/>
<rect x="183.404" y="7.07249" width="58.8133" height="58.8133" stroke="#A39EC6" stroke-width="0.744472"/>
<rect x="242.217" y="7.07249" width="58.8133" height="58.8133" stroke="#A39EC6" stroke-width="0.744472"/>
<rect x="301.031" y="7.07249" width="58.8133" height="58.8133" stroke="#A39EC6" stroke-width="0.744472"/>
<rect x="359.844" y="7.07249" width="58.8133" height="58.8133" stroke="#A39EC6" stroke-width="0.744472"/>
<rect x="418.657" y="7.07249" width="58.8133" height="58.8133" stroke="#A39EC6" stroke-width="0.744472"/>
<rect x="477.471" y="7.07249" width="58.8133" height="58.8133" fill="#A39EC6" fill-opacity="0.25" stroke="#A39EC6" stroke-width="0.744472"/>
<rect x="536.284" y="7.07249" width="58.8133" height="58.8133" stroke="#A39EC6" stroke-width="0.744472"/>
<rect x="595.097" y="7.07249" width="58.8133" height="58.8133" stroke="#A39EC6" stroke-width="0.744472"/>
<rect x="653.91" y="7.07249" width="58.8133" height="58.8133" stroke="#A39EC6" stroke-width="0.744472"/>
<rect x="712.724" y="7.07249" width="58.8133" height="58.8133" stroke="#A39EC6" stroke-width="0.744472"/>
<rect x="-51.8488" y="65.8858" width="58.8133" height="58.8133" stroke="#A39EC6" stroke-width="0.744472"/>
<rect x="6.96452" y="65.8858" width="58.8133" height="58.8133" stroke="#A39EC6" stroke-width="0.744472"/>
<rect x="65.7778" y="65.8858" width="58.8133" height="58.8133" stroke="#A39EC6" stroke-width="0.744472"/>
<rect x="124.591" y="65.8858" width="58.8133" height="58.8133" stroke="#A39EC6" stroke-width="0.744472"/>
<rect x="183.404" y="65.8858" width="58.8133" height="58.8133" stroke="#A39EC6" stroke-width="0.744472"/>
<rect x="242.218" y="65.8858" width="58.8133" height="58.8133" stroke="#A39EC6" stroke-width="0.744472"/>
<rect x="301.031" y="65.8858" width="58.8133" height="58.8133" stroke="#A39EC6" stroke-width="0.744472"/>
<rect x="359.844" y="65.8858" width="58.8133" height="58.8133" stroke="#A39EC6" stroke-width="0.744472"/>
<rect x="418.657" y="65.8858" width="58.8133" height="58.8133" stroke="#A39EC6" stroke-width="0.744472"/>
<rect x="477.471" y="65.8858" width="58.8133" height="58.8133" stroke="#A39EC6" stroke-width="0.744472"/>
<rect x="536.284" y="65.8858" width="58.8133" height="58.8133" stroke="#A39EC6" stroke-width="0.744472"/>
<rect x="595.097" y="65.8858" width="58.8133" height="58.8133" fill="#A39EC6" fill-opacity="0.25" stroke="#A39EC6" stroke-width="0.744472"/>
<rect x="653.91" y="65.8858" width="58.8133" height="58.8133" stroke="#A39EC6" stroke-width="0.744472"/>
<rect x="712.724" y="65.8858" width="58.8133" height="58.8133" stroke="#A39EC6" stroke-width="0.744472"/>
<rect x="-51.8488" y="124.699" width="58.8133" height="58.8133" stroke="#A39EC6" stroke-width="0.744472"/>
<rect x="6.96452" y="124.699" width="58.8133" height="58.8133" stroke="#A39EC6" stroke-width="0.744472"/>
<rect x="65.7778" y="124.699" width="58.8133" height="58.8133" stroke="#A39EC6" stroke-width="0.744472"/>
<rect x="124.591" y="124.699" width="58.8133" height="58.8133" stroke="#A39EC6" stroke-width="0.744472"/>
<rect x="183.404" y="124.699" width="58.8133" height="58.8133" stroke="#A39EC6" stroke-width="0.744472"/>
<rect x="242.218" y="124.699" width="58.8133" height="58.8133" stroke="#A39EC6" stroke-width="0.744472"/>
<rect x="301.031" y="124.699" width="58.8133" height="58.8133" stroke="#A39EC6" stroke-width="0.744472"/>
<rect x="359.844" y="124.699" width="58.8133" height="58.8133" stroke="#A39EC6" stroke-width="0.744472"/>
<rect x="418.657" y="124.699" width="58.8133" height="58.8133" stroke="#A39EC6" stroke-width="0.744472"/>
<rect x="477.471" y="124.699" width="58.8133" height="58.8133" stroke="#A39EC6" stroke-width="0.744472"/>
<rect x="536.284" y="124.699" width="58.8133" height="58.8133" stroke="#A39EC6" stroke-width="0.744472"/>
<rect x="595.097" y="124.699" width="58.8133" height="58.8133" stroke="#A39EC6" stroke-width="0.744472"/>
<rect x="653.91" y="124.699" width="58.8133" height="58.8133" stroke="#A39EC6" stroke-width="0.744472"/>
<rect x="712.724" y="124.699" width="58.8133" height="58.8133" stroke="#A39EC6" stroke-width="0.744472"/>
<rect x="-51.8488" y="183.512" width="58.8133" height="58.8133" stroke="#A39EC6" stroke-width="0.744472"/>
<rect x="6.96452" y="183.512" width="58.8133" height="58.8133" stroke="#A39EC6" stroke-width="0.744472"/>
<rect x="65.7778" y="183.512" width="58.8133" height="58.8133" stroke="#A39EC6" stroke-width="0.744472"/>
<rect x="124.591" y="183.512" width="58.8133" height="58.8133" stroke="#A39EC6" stroke-width="0.744472"/>
<rect x="183.404" y="183.512" width="58.8133" height="58.8133" stroke="#A39EC6" stroke-width="0.744472"/>
<rect x="242.218" y="183.512" width="58.8133" height="58.8133" stroke="#A39EC6" stroke-width="0.744472"/>
<rect x="301.031" y="183.512" width="58.8133" height="58.8133" fill="#A39EC6" fill-opacity="0.25" stroke="#A39EC6" stroke-width="0.744472"/>
<rect x="359.844" y="183.512" width="58.8133" height="58.8133" stroke="#A39EC6" stroke-width="0.744472"/>
<rect x="418.657" y="183.512" width="58.8133" height="58.8133" fill="#A39EC6" fill-opacity="0.25" stroke="#A39EC6" stroke-width="0.744472"/>
<rect x="477.471" y="183.512" width="58.8133" height="58.8133" stroke="#A39EC6" stroke-width="0.744472"/>
<rect x="536.284" y="183.512" width="58.8133" height="58.8133" stroke="#A39EC6" stroke-width="0.744472"/>
<rect x="595.097" y="183.512" width="58.8133" height="58.8133" stroke="#A39EC6" stroke-width="0.744472"/>
<rect x="653.91" y="183.512" width="58.8133" height="58.8133" stroke="#A39EC6" stroke-width="0.744472"/>
<rect x="712.724" y="183.512" width="58.8133" height="58.8133" stroke="#A39EC6" stroke-width="0.744472"/>
<rect x="-51.8488" y="242.326" width="58.8133" height="58.8133" stroke="#A39EC6" stroke-width="0.744472"/>
<rect x="6.96452" y="242.326" width="58.8133" height="58.8133" stroke="#A39EC6" stroke-width="0.744472"/>
<rect x="65.7778" y="242.326" width="58.8133" height="58.8133" stroke="#A39EC6" stroke-width="0.744472"/>
<rect x="124.591" y="242.326" width="58.8133" height="58.8133" stroke="#A39EC6" stroke-width="0.744472"/>
<rect x="183.404" y="242.326" width="58.8133" height="58.8133" stroke="#A39EC6" stroke-width="0.744472"/>
<rect x="242.218" y="242.326" width="58.8133" height="58.8133" stroke="#A39EC6" stroke-width="0.744472"/>
<rect x="301.031" y="242.326" width="58.8133" height="58.8133" stroke="#A39EC6" stroke-width="0.744472"/>
<rect x="359.844" y="242.326" width="58.8133" height="58.8133" stroke="#A39EC6" stroke-width="0.744472"/>
<rect x="418.657" y="242.326" width="58.8133" height="58.8133" stroke="#A39EC6" stroke-width="0.744472"/>
<rect x="477.471" y="242.326" width="58.8133" height="58.8133" stroke="#A39EC6" stroke-width="0.744472"/>
<rect x="536.284" y="242.326" width="58.8133" height="58.8133" stroke="#A39EC6" stroke-width="0.744472"/>
<rect x="595.097" y="242.326" width="58.8133" height="58.8133" fill="#A39EC6" fill-opacity="0.25" stroke="#A39EC6" stroke-width="0.744472"/>
<rect x="653.91" y="242.326" width="58.8133" height="58.8133" stroke="#A39EC6" stroke-width="0.744472"/>
<rect x="712.724" y="242.326" width="58.8133" height="58.8133" stroke="#A39EC6" stroke-width="0.744472"/>
<rect x="-51.8488" y="301.139" width="58.8133" height="58.8133" stroke="#A39EC6" stroke-width="0.744472"/>
<rect x="6.96452" y="301.139" width="58.8133" height="58.8133" stroke="#A39EC6" stroke-width="0.744472"/>
<rect x="65.7778" y="301.139" width="58.8133" height="58.8133" stroke="#A39EC6" stroke-width="0.744472"/>
<rect x="124.591" y="301.139" width="58.8133" height="58.8133" stroke="#A39EC6" stroke-width="0.744472"/>
<rect x="183.404" y="301.139" width="58.8133" height="58.8133" stroke="#A39EC6" stroke-width="0.744472"/>
<rect x="242.218" y="301.139" width="58.8133" height="58.8133" fill="#A39EC6" fill-opacity="0.25" stroke="#A39EC6" stroke-width="0.744472"/>
<rect x="301.031" y="301.139" width="58.8133" height="58.8133" stroke="#A39EC6" stroke-width="0.744472"/>
<rect x="359.844" y="301.139" width="58.8133" height="58.8133" stroke="#A39EC6" stroke-width="0.744472"/>
<rect x="418.657" y="301.139" width="58.8133" height="58.8133" stroke="#A39EC6" stroke-width="0.744472"/>
<rect x="477.471" y="301.139" width="58.8133" height="58.8133" stroke="#A39EC6" stroke-width="0.744472"/>
<rect x="536.284" y="301.139" width="58.8133" height="58.8133" stroke="#A39EC6" stroke-width="0.744472"/>
<rect x="595.097" y="301.139" width="58.8133" height="58.8133" stroke="#A39EC6" stroke-width="0.744472"/>
<rect x="653.91" y="301.139" width="58.8133" height="58.8133" stroke="#A39EC6" stroke-width="0.744472"/>
<rect x="712.724" y="301.139" width="58.8133" height="58.8133" stroke="#A39EC6" stroke-width="0.744472"/>
<rect x="-51.8488" y="359.952" width="58.8133" height="58.8133" stroke="#A39EC6" stroke-width="0.744472"/>
<rect x="6.96452" y="359.952" width="58.8133" height="58.8133" stroke="#A39EC6" stroke-width="0.744472"/>
<rect x="65.7778" y="359.952" width="58.8133" height="58.8133" stroke="#A39EC6" stroke-width="0.744472"/>
<rect x="124.591" y="359.952" width="58.8133" height="58.8133" stroke="#A39EC6" stroke-width="0.744472"/>
<rect x="183.404" y="359.952" width="58.8133" height="58.8133" stroke="#A39EC6" stroke-width="0.744472"/>
<rect x="242.218" y="359.952" width="58.8133" height="58.8133" stroke="#A39EC6" stroke-width="0.744472"/>
<rect x="301.031" y="359.952" width="58.8133" height="58.8133" stroke="#A39EC6" stroke-width="0.744472"/>
<rect x="359.844" y="359.952" width="58.8133" height="58.8133" stroke="#A39EC6" stroke-width="0.744472"/>
<rect x="418.657" y="359.952" width="58.8133" height="58.8133" stroke="#A39EC6" stroke-width="0.744472"/>
<rect x="477.471" y="359.952" width="58.8133" height="58.8133" fill="#A39EC6" fill-opacity="0.25" stroke="#A39EC6" stroke-width="0.744472"/>
<rect x="536.284" y="359.952" width="58.8133" height="58.8133" stroke="#A39EC6" stroke-width="0.744472"/>
<rect x="595.097" y="359.952" width="58.8133" height="58.8133" stroke="#A39EC6" stroke-width="0.744472"/>
<rect x="653.91" y="359.952" width="58.8133" height="58.8133" stroke="#A39EC6" stroke-width="0.744472"/>
<rect x="712.724" y="359.952" width="58.8133" height="58.8133" stroke="#A39EC6" stroke-width="0.744472"/>
<rect x="-51.8488" y="418.765" width="58.8133" height="58.8133" stroke="#A39EC6" stroke-width="0.744472"/>
<rect x="6.96452" y="418.765" width="58.8133" height="58.8133" stroke="#A39EC6" stroke-width="0.744472"/>
<rect x="65.7778" y="418.765" width="58.8133" height="58.8133" stroke="#A39EC6" stroke-width="0.744472"/>
<rect x="124.591" y="418.765" width="58.8133" height="58.8133" stroke="#A39EC6" stroke-width="0.744472"/>
<rect x="183.404" y="418.765" width="58.8133" height="58.8133" stroke="#A39EC6" stroke-width="0.744472"/>
<rect x="242.218" y="418.765" width="58.8133" height="58.8133" stroke="#A39EC6" stroke-width="0.744472"/>
<rect x="301.031" y="418.765" width="58.8133" height="58.8133" stroke="#A39EC6" stroke-width="0.744472"/>
<rect x="359.844" y="418.765" width="58.8133" height="58.8133" stroke="#A39EC6" stroke-width="0.744472"/>
<rect x="418.657" y="418.765" width="58.8133" height="58.8133" stroke="#A39EC6" stroke-width="0.744472"/>
<rect x="477.471" y="418.765" width="58.8133" height="58.8133" stroke="#A39EC6" stroke-width="0.744472"/>
<rect x="536.284" y="418.765" width="58.8133" height="58.8133" stroke="#A39EC6" stroke-width="0.744472"/>
<rect x="595.097" y="418.765" width="58.8133" height="58.8133" stroke="#A39EC6" stroke-width="0.744472"/>
<rect x="653.91" y="418.765" width="58.8133" height="58.8133" fill="#A39EC6" fill-opacity="0.25" stroke="#A39EC6" stroke-width="0.744472"/>
<rect x="712.724" y="418.765" width="58.8133" height="58.8133" stroke="#A39EC6" stroke-width="0.744472"/>
<rect x="-51.8488" y="477.579" width="58.8133" height="58.8133" stroke="#A39EC6" stroke-width="0.744472"/>
<rect x="6.96452" y="477.579" width="58.8133" height="58.8133" stroke="#A39EC6" stroke-width="0.744472"/>
<rect x="65.7778" y="477.579" width="58.8133" height="58.8133" stroke="#A39EC6" stroke-width="0.744472"/>
<rect x="124.591" y="477.579" width="58.8133" height="58.8133" stroke="#A39EC6" stroke-width="0.744472"/>
<rect x="183.404" y="477.579" width="58.8133" height="58.8133" stroke="#A39EC6" stroke-width="0.744472"/>
<rect x="242.218" y="477.579" width="58.8133" height="58.8133" stroke="#A39EC6" stroke-width="0.744472"/>
<rect x="301.031" y="477.579" width="58.8133" height="58.8133" fill="#A39EC6" fill-opacity="0.25" stroke="#A39EC6" stroke-width="0.744472"/>
<rect x="359.844" y="477.579" width="58.8133" height="58.8133" stroke="#A39EC6" stroke-width="0.744472"/>
<rect x="418.657" y="477.579" width="58.8133" height="58.8133" fill="#A39EC6" fill-opacity="0.25" stroke="#A39EC6" stroke-width="0.744472"/>
<rect x="477.471" y="477.579" width="58.8133" height="58.8133" stroke="#A39EC6" stroke-width="0.744472"/>
<rect x="536.284" y="477.579" width="58.8133" height="58.8133" stroke="#A39EC6" stroke-width="0.744472"/>
<rect x="595.097" y="477.579" width="58.8133" height="58.8133" stroke="#A39EC6" stroke-width="0.744472"/>
<rect x="653.91" y="477.579" width="58.8133" height="58.8133" stroke="#A39EC6" stroke-width="0.744472"/>
<rect x="712.724" y="477.579" width="58.8133" height="58.8133" stroke="#A39EC6" stroke-width="0.744472"/>
<rect x="-51.8488" y="536.392" width="58.8133" height="58.8133" stroke="#A39EC6" stroke-width="0.744472"/>
<rect x="6.96452" y="536.392" width="58.8133" height="58.8133" stroke="#A39EC6" stroke-width="0.744472"/>
<rect x="65.7778" y="536.392" width="58.8133" height="58.8133" fill="#A39EC6" fill-opacity="0.25" stroke="#A39EC6" stroke-width="0.744472"/>
<rect x="124.591" y="536.392" width="58.8133" height="58.8133" stroke="#A39EC6" stroke-width="0.744472"/>
<rect x="183.404" y="536.392" width="58.8133" height="58.8133" stroke="#A39EC6" stroke-width="0.744472"/>
<rect x="242.218" y="536.392" width="58.8133" height="58.8133" stroke="#A39EC6" stroke-width="0.744472"/>
<rect x="301.031" y="536.392" width="58.8133" height="58.8133" stroke="#A39EC6" stroke-width="0.744472"/>
<rect x="359.844" y="536.392" width="58.8133" height="58.8133" stroke="#A39EC6" stroke-width="0.744472"/>
<rect x="418.657" y="536.392" width="58.8133" height="58.8133" stroke="#A39EC6" stroke-width="0.744472"/>
<rect x="477.471" y="536.392" width="58.8133" height="58.8133" stroke="#A39EC6" stroke-width="0.744472"/>
<rect x="536.284" y="536.392" width="58.8133" height="58.8133" stroke="#A39EC6" stroke-width="0.744472"/>
<rect x="595.097" y="536.392" width="58.8133" height="58.8133" stroke="#A39EC6" stroke-width="0.744472"/>
<rect x="653.91" y="536.392" width="58.8133" height="58.8133" stroke="#A39EC6" stroke-width="0.744472"/>
<rect x="712.724" y="536.392" width="58.8133" height="58.8133" stroke="#A39EC6" stroke-width="0.744472"/>
</g>
<defs>
<radialGradient id="paint0_radial_850_115" cx="0" cy="0" r="1" gradientUnits="userSpaceOnUse" gradientTransform="translate(359.844 303) rotate(90) scale(373.531 544.694)">
<stop stop-color="#D9D9D9" stop-opacity="0.2"/>
<stop offset="0.802083" stop-color="#D9D9D9" stop-opacity="0"/>
</radialGradient>
</defs>
</svg>
